<?xml version="1.0" standalone="no"?>
<!DOCTYPE svg PUBLIC "-//W3C//DTD SVG 20010904//EN"
 "http://www.w3.org/TR/2001/REC-SVG-20010904/DTD/svg10.dtd">
<svg version="1.0" xmlns="http://www.w3.org/2000/svg"
 width="512.000000pt" height="512.000000pt" viewBox="0 0 512.000000 512.000000"
 preserveAspectRatio="xMidYMid meet">

<g transform="translate(0.000000,512.000000) scale(0.100000,-0.100000)"
fill="#000000" stroke="none">
<path d="M2225 5110 c-80 -13 -110 -26 -145 -66 -54 -62 -58 -152 -9 -217 45
-61 129 -188 129 -197 0 -5 -17 -14 -37 -20 -21 -7 -85 -32 -143 -57 -474
-203 -932 -619 -1230 -1118 l-66 -110 -167 -110 c-92 -60 -249 -164 -350 -230
-159 -105 -184 -125 -196 -157 -27 -74 17 -161 90 -177 22 -5 154 -1 325 10
292 19 325 18 379 -8 17 -8 134 -120 260 -249 l230 -235 52 1 c40 0 58 6 82
26 59 50 59 69 -4 364 -31 146 -66 312 -78 368 l-21 104 25 19 c63 49 111 64
204 64 53 0 103 -6 122 -14 l32 -13 -28 -42 c-16 -22 -48 -59 -71 -81 -72 -69
-87 -122 -51 -181 37 -61 182 -100 334 -90 135 9 250 49 365 128 l44 30 91
-16 c204 -36 414 -45 591 -27 65 7 83 13 98 31 24 29 23 71 -2 98 -20 21 -25
22 -198 16 -380 -14 -708 58 -1010 222 -122 66 -215 94 -309 94 -204 0 -382
-115 -383 -247 0 -17 29 -169 65 -338 36 -168 65 -309 65 -312 0 -4 -84 79
-186 185 -275 285 -266 281 -651 257 -145 -10 -266 -16 -267 -14 -2 2 125 87
282 189 157 102 300 196 316 210 16 14 50 57 75 96 47 72 104 126 256 241 222
168 442 295 737 426 44 20 59 32 64 53 10 38 -7 77 -38 92 -24 11 -36 10 -95
-14 -137 -54 -353 -167 -523 -273 -39 -24 38 60 144 158 353 324 703 500 1151
578 143 24 500 24 645 -1 101 -17 278 -60 287 -70 3 -3 -11 -42 -30 -88 -19
-46 -40 -100 -47 -121 -9 -28 -16 -37 -28 -33 -52 15 -109 27 -207 43 -149 24
-521 24 -682 0 -132 -20 -296 -53 -336 -69 -51 -20 -63 -79 -24 -116 28 -27
57 -27 167 -3 193 43 309 55 535 55 215 0 303 -9 474 -46 l53 -12 -6 -50 c-41
-319 11 -618 155 -885 22 -40 38 -76 36 -78 -3 -2 -56 -17 -118 -34 -122 -31
-149 -49 -149 -98 0 -34 37 -71 71 -71 69 0 582 155 798 242 143 56 309 139
352 175 33 28 55 89 45 127 -3 15 -26 45 -51 68 l-44 41 59 72 c69 83 90 134
90 219 0 113 -65 205 -260 368 -251 211 -622 404 -900 468 -48 11 -66 23 -136
90 -171 164 -390 280 -632 336 -121 28 -361 40 -467 24z m405 -165 c154 -32
308 -95 435 -178 l70 -46 -166 6 c-181 7 -325 -5 -503 -39 -106 -21 -110 -21
-120 -3 -6 10 -46 70 -88 134 -49 74 -73 119 -67 126 27 28 309 28 439 0z
m1213 -589 c149 -71 331 -197 486 -336 112 -101 141 -142 141 -201 0 -50 -8
-64 -91 -162 -36 -41 -61 -80 -65 -101 -9 -49 12 -101 52 -134 l34 -29 -127
-60 c-148 -71 -206 -93 -401 -160 l-143 -48 -19 25 c-62 78 -146 291 -177 448
-27 133 -24 366 6 502 21 99 70 240 105 308 l16 31 55 -25 c31 -13 88 -39 128
-58z m-1918 -1379 c44 -19 105 -42 135 -52 l54 -18 -51 -22 c-73 -33 -177 -49
-256 -41 -37 4 -69 12 -72 16 -3 5 9 26 28 47 18 21 43 53 56 71 12 17 23 32
24 32 2 0 38 -15 82 -33z"/>
<path d="M3898 3950 c-24 -25 -29 -36 -24 -58 15 -60 84 -82 124 -39 31 33 29
80 -4 106 -36 29 -60 26 -96 -9z"/>
<path d="M2902 3879 c-102 -17 -190 -82 -237 -175 -27 -52 -30 -69 -30 -149 0
-78 4 -97 28 -147 88 -180 347 -240 492 -114 44 37 51 81 20 116 -24 27 -64
25 -121 -5 -96 -51 -205 -23 -251 64 -43 82 -22 182 49 233 30 21 44 23 140
23 95 0 109 2 122 20 20 26 20 65 1 91 -24 35 -131 57 -213 43z"/>
<path d="M3691 2534 c-59 -49 -59 -69 4 -364 31 -146 65 -309 77 -363 11 -53
18 -103 15 -110 -3 -7 -33 -28 -68 -47 -50 -26 -78 -34 -135 -38 -90 -6 -133
8 -318 103 -137 70 -301 131 -418 156 -32 7 -58 16 -58 21 0 9 48 103 100 197
58 105 29 204 -75 252 -69 32 -286 22 -457 -22 -171 -43 -364 -135 -497 -236
-61 -46 -156 -137 -216 -206 l-50 -57 -170 -50 c-316 -91 -500 -161 -742 -282
-188 -93 -240 -134 -283 -221 -65 -133 -46 -275 52 -382 28 -31 64 -63 80 -71
l29 -15 -30 -35 c-40 -44 -45 -98 -15 -155 48 -94 801 -448 1136 -533 217 -56
335 -70 573 -70 337 0 607 53 889 176 l68 30 57 -25 c108 -49 169 -62 286 -62
127 0 212 23 316 84 78 45 102 77 102 133 0 56 -20 86 -91 136 -31 22 -70 54
-87 71 l-29 32 107 102 c98 93 107 105 107 138 0 55 -56 92 -102 68 -13 -6
-68 -55 -123 -108 -127 -122 -211 -190 -355 -286 -440 -295 -997 -407 -1525
-309 -92 17 -224 50 -232 58 -3 3 10 43 29 88 59 137 87 242 108 401 20 151 6
352 -35 510 l-23 88 36 15 c66 27 212 74 310 98 232 58 384 77 692 83 283 6
513 -10 670 -45 109 -25 259 -22 331 7 127 49 209 135 209 218 0 18 -29 170
-65 339 -36 169 -64 309 -62 311 2 2 85 -82 185 -185 264 -275 275 -280 636
-256 121 8 233 14 250 12 27 -3 -3 -25 -263 -193 -162 -104 -306 -202 -321
-217 -15 -14 -46 -59 -70 -100 -24 -40 -78 -125 -122 -188 -43 -64 -78 -125
-78 -137 0 -11 9 -32 21 -47 28 -36 76 -36 111 2 30 33 129 179 188 280 23 40
59 85 79 100 20 16 164 111 321 212 157 101 299 194 317 208 59 44 67 132 17
191 -43 51 -61 53 -381 32 -301 -20 -350 -18 -403 16 -14 9 -126 119 -250 245
l-225 229 -52 -1 c-40 0 -58 -6 -82 -26z m-925 -339 c4 -8 -12 -45 -34 -83
-22 -37 -53 -97 -69 -133 l-30 -66 -74 10 c-112 13 -454 1 -584 -21 -60 -11
-112 -18 -114 -16 -2 1 32 26 75 54 104 68 296 161 414 201 173 57 404 87 416
54z m-66 -444 c58 -12 139 -32 180 -45 l75 -24 -175 -1 c-372 -2 -688 -52
-1003 -158 -75 -25 -139 -44 -141 -42 -17 21 -84 165 -78 170 11 11 296 76
427 98 168 28 185 29 410 26 153 -3 225 -8 305 -24z m-1266 -206 c208 -348
230 -806 57 -1187 l-31 -67 -127 54 c-276 114 -416 181 -572 273 -82 48 -93
57 -77 66 48 28 67 53 73 92 8 62 -14 93 -97 139 -84 46 -125 89 -141 147 -22
82 9 164 80 211 120 80 410 205 721 310 66 23 80 18 114 -38z m2222 -1096 c16
-17 50 -49 76 -70 l48 -38 -53 -24 c-102 -48 -250 -59 -345 -26 l-34 12 89 57
c48 32 106 71 128 88 22 18 45 32 51 32 5 0 23 -14 40 -31z"/>
<path d="M1120 1180 c-45 -45 -11 -120 53 -120 42 0 70 29 70 70 0 63 -78 95
-123 50z"/>
<path d="M2045 1031 c-85 -22 -119 -62 -99 -118 13 -39 51 -49 116 -34 98 24
189 -23 224 -114 42 -111 -46 -234 -170 -235 -21 0 -65 12 -98 27 -70 31 -104
25 -127 -21 -51 -106 180 -197 344 -135 81 30 164 113 191 189 57 166 -14 339
-170 415 -56 27 -158 40 -211 26z"/>
</g>
</svg>
